<?xml version="1.0" encoding="utf-8"?>
<!-- Generator: Adobe Illustrator 16.0.0, SVG Export Plug-In . SVG Version: 6.00 Build 0)  -->
<!DOCTYPE svg PUBLIC "-//W3C//DTD SVG 1.1//EN" "http://www.w3.org/Graphics/SVG/1.1/DTD/svg11.dtd">
<svg version="1.1" id="Layer_1" xmlns="http://www.w3.org/2000/svg" xmlns:xlink="http://www.w3.org/1999/xlink" x="0px" y="0px"
	 width="458.334px" height="136.566px" viewBox="0 0 458.334 136.566" enable-background="new 0 0 458.334 136.566"
	 xml:space="preserve">
<g>
	<g>
		<path fill="#1A1A1A" d="M167.07-310.065h11.989v46.016H167.07V-310.065z"/>
		<path fill="#1A1A1A" d="M197.237-287.055v23.006H185.94v-46.393l3.146,2.598l25.165,20.789v-23.044h11.133l-0.062,46.404
			L197.237-287.055z"/>
		<path fill="#1A1A1A" d="M284.642-311.225c-11.613,0-16.773,6.651-21.836,18.461l0.016,0.053c-0.49,0.996-0.963,2.033-1.422,3.111
			l-1.49,3.475c-2.777,6.352-4.465,10.123-9.229,10.123c-3.97,0-6.849-3.672-6.849-9.43c0-6.848,3.573-10.719,8.437-13.695
			l-6.55-11.315c-8.041,4.071-14.193,12.407-14.193,25.309c0,13.201,6.848,23.025,19.354,23.025
			c11.612,0,16.773-6.648,21.836-18.459l0.322-0.754c0.37-0.779,0.731-1.584,1.084-2.412l1.49-3.473
			c2.777-6.352,4.465-10.125,9.229-10.125c3.971,0,6.85,3.674,6.85,9.43c0,6.848-3.574,10.719-8.438,13.697l6.551,11.314
			c8.04-4.07,14.193-12.408,14.193-25.309C303.995-301.398,297.147-311.225,284.642-311.225z"/>
		<path fill="#1A1A1A" d="M310.513-310.065h11.99v46.016h-11.99V-310.065z"/>
		<path fill="#1A1A1A" d="M329.834-310.065h16.572c13.577,0,23.979,8.815,23.979,23.008c0,14.016-10.315,23.008-23.979,23.008
			h-16.572V-310.065z M345.79-274.451c8.551,0,12.342-4.848,12.342-12.605c0-7.668-3.791-12.605-12.342-12.605h-3.968v25.211H345.79
			z"/>
		<path fill="#1A1A1A" d="M377.229-310.065h32.705v10.315h-20.717v7.789h20.129v9.785h-20.129v7.812h21.598v10.314h-33.586V-310.065
			z"/>
		<path fill="#1A1A1A" d="M417.241-310.065h16.572c13.576,0,23.979,8.815,23.979,23.008c0,14.016-10.314,23.008-23.979,23.008
			h-16.572V-310.065z M433.196-274.451c8.552,0,12.342-4.848,12.342-12.605c0-7.668-3.79-12.605-12.342-12.605h-3.967v25.211
			H433.196z"/>
	</g>
	<g>
		<g>
			<g>
				<circle fill="#1A1A1A" cx="67.802" cy="-287.023" r="12.597"/>
			</g>
			<g>
				<path fill="#666666" d="M67.802-267.707c-10.651,0-19.316-8.666-19.316-19.314c0-10.652,8.665-19.318,19.316-19.318
					c10.65,0,19.315,8.666,19.315,19.318C87.118-276.373,78.453-267.707,67.802-267.707L67.802-267.707z M67.802-303.205
					c-8.922,0-16.181,7.26-16.181,16.184c0,8.92,7.258,16.178,16.181,16.178c8.921,0,16.179-7.258,16.179-16.178
					C83.981-295.945,76.723-303.205,67.802-303.205L67.802-303.205z"/>
			</g>
		</g>
		<circle fill="#009245" cx="67.741" cy="-324.854" r="8.486"/>
		<circle fill="#D9E021" cx="67.741" cy="-346.854" r="8.486"/>
		<circle fill="#EA3680" cx="67.741" cy="-249.26" r="8.486"/>
		<circle fill="#39B54A" cx="48.843" cy="-319.79" r="4.243"/>
		<circle fill="#FF7BAC" cx="86.64" cy="-254.324" r="4.243"/>
		<circle fill="#29ABE2" cx="100.475" cy="-305.955" r="8.486"/>
		<circle fill="#ED1E79" cx="35.009" cy="-268.158" r="8.486"/>
		<circle fill="#9E005D" cx="105.539" cy="-287.057" r="4.242"/>
		<circle fill="#9E005D" cx="29.944" cy="-287.057" r="4.242"/>
		<circle fill="#39B54A" cx="86.64" cy="-319.79" r="4.243"/>
		<circle fill="#FF7BAC" cx="48.843" cy="-254.324" r="4.243"/>
		<circle fill="#ED1E79" cx="100.476" cy="-268.158" r="8.486"/>
		<circle fill="#29ABE2" cx="35.01" cy="-305.955" r="8.486"/>
		<circle fill="#FFCE00" cx="67.741" cy="-227.26" r="8.486"/>
		<circle fill="#61CCF2" cx="15.956" cy="-316.955" r="8.486"/>
		<circle fill="#E570A8" cx="119.527" cy="-257.159" r="8.486"/>
		<circle fill="#61CCF2" cx="119.526" cy="-316.955" r="8.486"/>
		<circle fill="#E570A8" cx="15.955" cy="-257.159" r="8.486"/>
		<circle fill="#8CC63F" cx="37.843" cy="-338.842" r="8.486"/>
		<circle fill="#F7931E" cx="97.64" cy="-235.271" r="8.486"/>
		<circle fill="#8CC63F" cx="97.639" cy="-338.842" r="8.486"/>
		<circle fill="#F7931E" cx="37.843" cy="-235.271" r="8.486"/>
		<circle fill="#93278F" cx="127.538" cy="-287.056" r="8.485"/>
		<circle fill="#93278F" cx="7.944" cy="-287.056" r="8.485"/>
	</g>
</g>
<g>
	<g>
		<path fill="#1A1A1A" d="M167.736-124.818h11.989v46.017h-11.989V-124.818z"/>
		<path fill="#1A1A1A" d="M197.903-101.808v23.006h-11.297v-46.394l3.146,2.599l25.165,20.789v-23.044h11.133l-0.062,46.403
			L197.903-101.808z"/>
		<path fill="#1A1A1A" d="M285.308-125.979c-11.613,0-16.773,6.651-21.836,18.462l0.016,0.053c-0.49,0.996-0.963,2.033-1.422,3.111
			l-1.49,3.475c-2.777,6.352-4.465,10.123-9.229,10.123c-3.97,0-6.849-3.672-6.849-9.43c0-6.848,3.573-10.719,8.437-13.695
			l-6.55-11.315c-8.041,4.071-14.193,12.407-14.193,25.31c0,13.201,6.848,23.025,19.354,23.025c11.612,0,16.773-6.648,21.836-18.459
			l0.322-0.754c0.37-0.779,0.731-1.584,1.084-2.412l1.49-3.473c2.777-6.352,4.465-10.125,9.229-10.125c3.971,0,6.85,3.674,6.85,9.43
			c0,6.848-3.574,10.719-8.438,13.697l6.551,11.314c8.04-4.07,14.193-12.408,14.193-25.309
			C304.661-116.151,297.813-125.979,285.308-125.979z"/>
		<path fill="#1A1A1A" d="M311.179-124.818h11.99v46.017h-11.99V-124.818z"/>
		<path fill="#1A1A1A" d="M330.5-124.818h16.572c13.577,0,23.979,8.815,23.979,23.009c0,14.016-10.315,23.008-23.979,23.008H330.5
			V-124.818z M346.456-89.204c8.551,0,12.342-4.848,12.342-12.605c0-7.668-3.791-12.605-12.342-12.605h-3.968v25.211H346.456z"/>
		<path fill="#1A1A1A" d="M377.896-124.818h32.705v10.315h-20.717v7.789h20.129v9.785h-20.129v7.812h21.598v10.314h-33.586V-124.818
			z"/>
		<path fill="#1A1A1A" d="M417.907-124.818h16.572c13.576,0,23.979,8.815,23.979,23.009c0,14.016-10.314,23.008-23.979,23.008
			h-16.572V-124.818z M433.862-89.204c8.552,0,12.342-4.848,12.342-12.605c0-7.668-3.79-12.605-12.342-12.605h-3.967v25.211H433.862
			z"/>
	</g>
</g>
<g>
	<g>
		<g>
			<g>
				<circle fill="#1A1A1A" cx="68.468" cy="68.224" r="12.597"/>
			</g>
			<g>
				<path fill="#666666" d="M68.468,87.54c-10.651,0-19.316-8.666-19.316-19.314c0-10.652,8.665-19.318,19.316-19.318
					c10.65,0,19.315,8.666,19.315,19.318C87.784,78.874,79.119,87.54,68.468,87.54L68.468,87.54z M68.468,52.042
					c-8.922,0-16.181,7.26-16.181,16.184c0,8.92,7.258,16.178,16.181,16.178c8.921,0,16.179-7.258,16.179-16.178
					C84.647,59.302,77.389,52.042,68.468,52.042L68.468,52.042z"/>
			</g>
		</g>
		<circle fill="#009245" cx="68.407" cy="30.394" r="8.486"/>
		<circle fill="#D9E021" cx="68.407" cy="8.394" r="8.486"/>
		<circle fill="#EA3680" cx="68.407" cy="105.987" r="8.486"/>
		<circle fill="#39B54A" cx="49.509" cy="35.457" r="4.243"/>
		<circle fill="#FF7BAC" cx="87.306" cy="100.923" r="4.243"/>
		<circle fill="#29ABE2" cx="101.141" cy="49.292" r="8.486"/>
		<circle fill="#ED1E79" cx="35.675" cy="87.089" r="8.486"/>
		<circle fill="#9E005D" cx="106.205" cy="68.19" r="4.242"/>
		<circle fill="#9E005D" cx="30.61" cy="68.19" r="4.242"/>
		<circle fill="#39B54A" cx="87.306" cy="35.457" r="4.243"/>
		<circle fill="#FF7BAC" cx="49.509" cy="100.923" r="4.243"/>
		<circle fill="#ED1E79" cx="101.142" cy="87.089" r="8.486"/>
		<circle fill="#29ABE2" cx="35.676" cy="49.292" r="8.486"/>
		<circle fill="#FFCE00" cx="68.407" cy="127.987" r="8.486"/>
		<circle fill="#61CCF2" cx="16.622" cy="38.292" r="8.486"/>
		<circle fill="#E570A8" cx="120.193" cy="98.088" r="8.486"/>
		<circle fill="#61CCF2" cx="120.192" cy="38.292" r="8.486"/>
		<circle fill="#E570A8" cx="16.621" cy="98.088" r="8.486"/>
		<circle fill="#8CC63F" cx="38.509" cy="16.405" r="8.486"/>
		<circle fill="#F7931E" cx="98.306" cy="119.977" r="8.486"/>
		<circle fill="#8CC63F" cx="98.305" cy="16.405" r="8.486"/>
		<circle fill="#F7931E" cx="38.509" cy="119.977" r="8.486"/>
		<circle fill="#93278F" cx="128.204" cy="68.191" r="8.485"/>
		<circle fill="#93278F" cx="8.61" cy="68.191" r="8.485"/>
	</g>
</g>
</svg>
